<svg id="Layer_1" data-name="Layer 1" xmlns="http://www.w3.org/2000/svg" viewBox="0 0 383.28 276.94">
  <g>
    <path d="M91,280.56c3.4-9.63,10.43-12.75,20.31-12.73q172.29.24,344.58.1c9.31,0,15.42,4,17.65,11.47a16,16,0,0,1-14.34,20.52c-1.49.11-3,0-4.49,0q-171.91,0-343.83.11c-9.83,0-16.57-3.35-19.88-12.77Z" transform="translate(-91 -145.55)"/>
    <path d="M91,157.8c1.82-2.75,3.17-6.07,5.61-8.09s5.9-2.85,9-3.93c1.24-.43,2.72-.14,4.1-.14q172.88,0,345.74,0a27.37,27.37,0,0,1,8.1.93,15.69,15.69,0,0,1,10.58,17,15.93,15.93,0,0,1-14.93,13.79c-1.62.09-3.24.07-4.86.07q-171.37,0-342.76.14c-9.89,0-16.89-2.9-20.59-12.3Z" transform="translate(-91 -145.55)"/>
    <path d="M91,403.32c3.12-9.55,9.77-12.94,19.68-12.93q173,.27,346.05.12c8.88,0,14.82,4.15,16.91,11.78a15.76,15.76,0,0,1-13.45,19.85,61.05,61.05,0,0,1-6.35.21q-171.15,0-342.31.14c-9.88,0-16.9-3-20.53-12.43Z" transform="translate(-91 -145.55)"/>
  </g>
</svg>
